<?xml version="1.0" standalone="no"?>
<!DOCTYPE svg PUBLIC "-//W3C//DTD SVG 20010904//EN"
 "http://www.w3.org/TR/2001/REC-SVG-20010904/DTD/svg10.dtd">
<svg version="1.0" xmlns="http://www.w3.org/2000/svg"
 width="322.000000pt" height="341.000000pt" viewBox="0 0 322.000000 341.000000"
 preserveAspectRatio="xMidYMid meet">

<g transform="translate(0.000000,341.000000) scale(0.100000,-0.100000)"
fill="#000000" stroke="none">
<path d="M930 2671 l0 -699 -67 -7 c-244 -24 -490 -74 -593 -121 -59 -26 -110
-72 -110 -99 0 -27 50 -72 107 -98 54 -24 208 -67 296 -82 34 -5 38 -9 33 -28
-39 -133 -48 -185 -53 -304 -6 -144 2 -207 43 -337 56 -174 122 -286 243 -407
163 -162 341 -259 539 -292 l77 -13 3 -92 3 -92 99 0 100 0 0 89 0 89 73 12
c333 56 601 257 754 565 50 100 68 156 88 269 26 153 15 340 -29 479 -12 37
-12 49 -3 51 7 2 55 12 107 21 175 32 299 80 339 131 27 34 26 46 -4 82 -51
61 -226 115 -492 152 -87 12 -168 24 -180 26 l-23 4 0 700 0 700 -675 0 -675
0 0 -699z m-25 -1150 c352 -34 909 -39 1220 -11 61 5 144 12 186 16 l76 6 21
-68 c33 -107 45 -209 39 -311 -15 -221 -99 -412 -251 -571 -331 -347 -887
-361 -1238 -33 -131 122 -213 258 -260 431 -32 121 -32 318 1 440 33 117 36
122 74 115 18 -3 77 -9 132 -14z"/>
<path d="M1681 1296 c-87 -48 -50 -186 49 -186 51 0 100 49 100 99 0 75 -83
124 -149 87z"/>
<path d="M1191 1286 c-87 -48 -50 -186 49 -186 51 0 100 49 100 99 0 75 -83
124 -149 87z"/>
<path d="M1938 915 c-31 -17 -48 -44 -48 -73 0 -30 -82 -88 -217 -153 -188
-91 -161 -97 -324 70 -158 162 -180 174 -237 126 -40 -33 -50 -80 -27 -125 9
-17 60 -77 113 -133 219 -230 272 -248 479 -159 160 70 258 129 329 197 68 66
91 118 80 177 -12 68 -90 106 -148 73z"/>
</g>
</svg>
